<svg width="181" height="181" viewBox="0 0 181 181" fill="none" xmlns="http://www.w3.org/2000/svg">
<path d="M181 96C181 142.944 142.944 181 96 181C49.0558 181 11 142.944 11 96C11 49.0557 49.0558 11 96 11C142.944 11 181 49.0557 181 96Z" fill="black"/>
<path d="M181 96C181 142.944 142.944 181 96 181C49.0558 181 11 142.944 11 96C11 49.0557 49.0558 11 96 11C142.944 11 181 49.0557 181 96Z" fill="black"/>
<path d="M174 88C174 134.944 135.944 173 89 173C42.0558 173 4 134.944 4 88C4 41.0557 42.0558 2.99999 89 2.99999C135.944 2.99999 174 41.0557 174 88Z" fill="#FF9B5F"/>
<path d="M174 88C174 134.944 135.944 173 89 173C42.0558 173 4 134.944 4 88C4 41.0557 42.0558 2.99999 89 2.99999C135.944 2.99999 174 41.0557 174 88Z" fill="#FF9B5F"/>
<path d="M88 86.5C88 133.444 134.944 173 88 173C41.0558 173 3 134.944 3 87.9999C3 41.0557 41.0558 2.99995 88 2.99995C134.944 2.99995 88 39.5558 88 86.5Z" fill="#FF8134"/>
<path d="M88 86.5C88 133.444 134.944 173 88 173C41.0558 173 3 134.944 3 87.9999C3 41.0557 41.0558 2.99995 88 2.99995C134.944 2.99995 88 39.5558 88 86.5Z" fill="#FF8134"/>
<circle cx="89" cy="88" r="10" fill="black"/>
<rect x="84" y="87.821" width="76.0036" height="10.5236" rx="4" transform="rotate(-60 84 87.821)" fill="black"/>
<rect x="83" y="85" width="44" height="11" rx="4" transform="rotate(-90 83 85)" fill="black"/>
<rect x="56" y="137.828" width="61" height="5" rx="2.5" transform="rotate(-60 56 137.828)" fill="black"/>
<path d="M171 87.5C171 134.184 133.376 172 87 172C40.6243 172 3 134.184 3 87.5C3 40.8157 40.6243 3 87 3C133.376 3 171 40.8157 171 87.5Z" stroke="black" stroke-width="6"/>
</svg>
