<svg width="181" height="183" viewBox="0 0 181 183" fill="none" xmlns="http://www.w3.org/2000/svg">
<rect x="8" y="31.716" width="44.8532" height="30" transform="rotate(-45 8 31.716)" fill="black"/>
<rect y="33.716" width="44.8532" height="30" transform="rotate(-45 0 33.716)" fill="#757575"/>
<path d="M181 98C181 144.944 142.944 183 96 183C49.0558 183 11 144.944 11 98C11 51.0557 49.0558 13 96 13C142.944 13 181 51.0557 181 98Z" fill="black"/>
<path d="M181 98C181 144.944 142.944 183 96 183C49.0558 183 11 144.944 11 98C11 51.0557 49.0558 13 96 13C142.944 13 181 51.0557 181 98Z" fill="black"/>
<path d="M174 90C174 136.944 135.944 175 89 175C42.0558 175 4 136.944 4 90C4 43.0557 42.0558 4.99999 89 4.99999C135.944 4.99999 174 43.0557 174 90Z" fill="#EB7E3B"/>
<path d="M174 90C174 136.944 135.944 175 89 175C42.0558 175 4 136.944 4 90C4 43.0557 42.0558 4.99999 89 4.99999C135.944 4.99999 174 43.0557 174 90Z" fill="#EB7E3B"/>
<path d="M88 88.5C88 135.444 134.944 175 88 175C41.0558 175 3 136.944 3 89.9999C3 43.0557 41.0558 4.99995 88 4.99995C134.944 4.99995 88 41.5558 88 88.5Z" fill="#FF8134"/>
<path d="M88 88.5C88 135.444 134.944 175 88 175C41.0558 175 3 136.944 3 89.9999C3 43.0557 41.0558 4.99995 88 4.99995C134.944 4.99995 88 41.5558 88 88.5Z" fill="#FF8134"/>
<circle cx="88" cy="95" r="10" fill="black"/>
<circle cx="90" cy="95" r="16" fill="black"/>
<path d="M146.965 38.0346L102.069 105L91.0346 93.9654L80 82.9307L146.965 38.0346Z" fill="black"/>
<circle cx="88" cy="92" r="16" fill="white"/>
<path d="M143.896 36.0346L99 103L87.9654 91.9654L76.9307 80.9307L143.896 36.0346Z" fill="white"/>
<path d="M49.2426 53.2426L94.4975 90.0122L90.2548 94.2548L86.0122 98.4975L49.2426 53.2426Z" fill="white"/>
<circle cx="88.5" cy="92.5" r="5.5" fill="black"/>
<rect x="85" y="156" width="7" height="12" rx="3.5" fill="black"/>
<rect x="85" y="9" width="7" height="12" rx="3.5" fill="black"/>
<rect x="158" y="86" width="12" height="8" rx="4" fill="black"/>
<rect x="5" y="86" width="12" height="8" rx="4" fill="black"/>
</svg>
